# xmcd
#
# Track frame offsets:
#	182
#	15305
#	27430
#	41942
#	64332
#	77347
#	99732
#	117272
#	130650
#	141805
#	162747
#	175610
#	188057
#	205955
#	223202
#	238895
#	261630
#	278245
#	294132
#	311205
#	322307
#	337720
#
# Disc length: 4718 seconds
#
# Revision: 1297138887
# Processed by: cddbd v1.5.2PL0 Copyright (c) Steve Scherf et al.
# Submitted via: EZCDAudioConverter 8.0.6.1
#
DISCID=53126c16
DTITLE=Gram Parsons - Sacred Hearts and Fallen Angels: The Gram Parsons Antholog
DTITLE=y 
DYEAR=2001
DGENRE=Country
TTITLE0=The Flying Burrito Brothers - To Love Somebody
TTITLE1=Gram Parsons - Still Feeling Blue
TTITLE2=Gram Parsons - We'll Sweep Out The Ashes In The Morning
TTITLE3=Gram Parsons - A Song For You
TTITLE4=Gram Parsons - Streets Of Baltimore
TTITLE5=Gram Parsons - She
TTITLE6=Gram Parsons - The New Soft Shoe
TTITLE7=Gram Parsons - Kiss The Children
TTITLE8=Gram Parsons - How Much I've Lied
TTITLE9=Gram Parsons And The Fallen Angels - Drug Store Truck Drivin' Man
TTITLE10=Gram Parsons And The Fallen Angels - That's All It Took
TTITLE11=Gram Parsons And The Fallen Angels - California Cotton Fields
TTITLE12=Gram Parsons - Return Of The Grievous Angel (Remix)
TTITLE13=Gram Parsons - Hearts On Fire
TTITLE14=Gram Parsons - Brass Buttons
TTITLE15=Gram Parsons - $1000 Wedding
TTITLE16=Gram Parsons - Love Hurts
TTITLE17=Gram Parsons - Ooh Las Vegas
TTITLE18=Gram Parsons - In My Hour Of Darkness
TTITLE19=Gram Parsons - Brand New Heartache
TTITLE20=Gram Parsons - Sleepless Nights
TTITLE21=Gram Parsons - The Angels Rejoiced Last Night
EXTD=
EXTT0=
EXTT1=
EXTT2=
EXTT3=
EXTT4=
EXTT5=
EXTT6=
EXTT7=
EXTT8=
EXTT9=
EXTT10=
EXTT11=
EXTT12=
EXTT13=
EXTT14=
EXTT15=
EXTT16=
EXTT17=
EXTT18=
EXTT19=
EXTT20=
EXTT21=
PLAYORDER=
